<svg xmlns="http://www.w3.org/2000/svg" viewBox="0 0 460.3 163.43"><title>Layer 2</title><g id="Layer_2" data-name="Layer 2"><g id="Layer_1-2" data-name="Layer 1"><g id="Layer_2-2" data-name="Layer 2"><g id="Layer_1-2-2" data-name="Layer 1-2"><path d="M269.81,1.5c-8,2.1-32.9,14.7-52.5,26.4-25.2,15.1-107.8,70.6-115,77.2-.5.5,2.6-.7,7-2.7,24.9-11.4,70.4-28.9,98-37.8,40.5-12.9,83.8-22,109.2-22.9,4-.2,7.3-.6,7.3-.9,0-1.3-17-19.6-23.9-25.8-9.2-8.1-19.6-15.1-22.4-15A45.76,45.76,0,0,0,269.81,1.5Z"/><path d="M197.41,4.9c-9,5.8-38.1,36.4-66.6,70.1l-10.5,12.4,7.5-6.1c28.6-23.2,73.2-52.5,93.9-61.7l4.3-1.9-3.3-2.9c-4.9-4.2-17.9-12.9-19.3-12.9C202.71,1.9,200,3.3,197.41,4.9Z"/><path d="M356.31,50.5c-2.2.2-9.8.9-17,1.4-88.2,7.2-190.3,37.2-289.9,85.3-17.8,8.6-50,25.7-49.4,26.2.2.2,4.8-.7,10.4-2,45.6-10.3,105.2-17.5,169.7-20.6,33-1.5,120.7-.7,149.3,1.5l21.2,1.6,7.3-7.6a480.53,480.53,0,0,1,96.8-76.9c3.6-2.1,6.1-4,5.5-4.2s-9-1.2-18.9-2.4c-13.8-1.6-25.3-2.1-49.5-2.4C374.51,50.2,358.51,50.3,356.31,50.5Z"/></g></g></g></g></svg>